<mxfile host="app.diagrams.net" modified="2023-05-16T18:39:50.870Z" agent="Mozilla/5.0 (Macintosh; Intel Mac OS X 10_15_7) AppleWebKit/537.36 (KHTML, like Gecko) Chrome/113.0.0.0 Safari/537.36" etag="7GVLv6iU2-WX5_bklo6A" version="21.3.2" type="github">
  <diagram id="wFE0QG_FPsp0jaGvCLVb" name="Page-1">
    <mxGraphModel dx="1037" dy="566" grid="1" gridSize="10" guides="1" tooltips="1" connect="1" arrows="1" fold="1" page="1" pageScale="1" pageWidth="850" pageHeight="1100" math="0" shadow="0">
      <root>
        <mxCell id="0" />
        <mxCell id="1" parent="0" />
        <mxCell id="-zi88P0TZKXWsS0uXHh8-2" value="" style="rounded=0;whiteSpace=wrap;html=1;fontSize=16;background-color: pink;" vertex="1" parent="1">
          <mxGeometry width="850" height="40" as="geometry" />
        </mxCell>
        <mxCell id="-zi88P0TZKXWsS0uXHh8-7" value="" style="shape=stencil(fZbdcgIhDIWfZm8zQAg/17Z9j85U606tdqz9e/tmZ0c0uJ47xP0I5JwEBl59bp8/1kNwn6fj4W39M76ctgM/DCGM++36OJ50NPDjwKvN4bh+PR6+9i/z74/n6ctp9H74nlb4nbmSKZeJCu5vngmZ6jzzNAO7cX8FVKEsBuBKrgKg9oAE8gkCbLeUhEoEQKSUDZDLeWYRKIl8MEDRmHwfyBrBG6Amyu4+kDxxMoB3jhwgYu7TVAsVkFcWCs4CTBEoF4RctKeOxHIf8IXYpikHikAIf+MNUW94AGSSaoAoFIE3AlOyeWU+p2E5S9yfQZcQILVuQOwZdJNoS9Ls3wA5u2XZTIHECqeJ9kDpSaauRiNVcAY1QhdBzeLBli5WazpkSsBLV25uRaqWRyFawTQzRRIQYirJzq5atkBqLfouwqUxLBepthWb10vrWZY6UOAeyKCCtDV625mm9gmUC4Wc3VLJMMIE1BsA2FW9JraVlQB7n3c9oMKhCLEvIM1zBPZ25/umNQ1tVEC2G+fFCC8g398O2hNQuQlVu752DBfA+q0ptnqO5JFmeuIuo9DY7KjY71UxdJV4EntifPWorW++R/dC4t7V3DlIB5cHx2bc7eb3yvX//QNFp+bHDT/+Aw==);lineShape=1;fontSize=16;" vertex="1" parent="1">
          <mxGeometry x="13.867960842475668" y="15.875312458519147" width="4.672539772115442" height="4.665236216357698" as="geometry" />
        </mxCell>
        <mxCell id="-zi88P0TZKXWsS0uXHh8-8" value="" style="shape=stencil(7VjJUhtRDPwaX1VvX86E/AdVmOAKwZSBLH+fnrjeMNJ4muKWAzdj1Nbekt4uXj3f3zztd8E9v5yO3/e/Drcv97v4ZRfC4fF+fzq84NMuXu/i1d3xtP92Or4+3p7/frqZJKdPP44/p1/4fcalLrFOqOD+nL/xUVL5983XM+Dh8LgEBHFdAUKWlrcBsUoOChCTxEgAUXxWAOjMaRsQmpSmANlJZ4AkVfuQ8ROOALw4bVKB08QHnyVpp2uVSDT4MGIyAC1JC9uALkG70NPI5EX5JjVp+UINqtK1A73SmBbpXst38UQ+2xRAvhH5JEXb450TRxyYy3ihgOZYoi6ijpogAfWSsg1QIPJOqgkQaoTKB5OASBM8R2OW9+I9ldfxaY0WnJOkf78VKeT30TLaXxR0oQVUtD3oGGY/eKrphBVwGVHg0QKa6koaRbtFE167XNxo68uALskQUR5td7lGYYABeAmETJOzGhKiRIgooch036dIyw7UGTQRQSerO7joNQCMX4gPCKLXlRGzRAbItrQxIkIj3OXsBImeTpCaV0Otj8xcZlOUhu5OEGYmUQI7m/ZHdTE+BT2H1ZwNhL9AP1U7jZZi1Qp+MxSPIZE6AXSpzobVE8CCohezP5BynVTo+o58bgLgTENAJ0sExpjmGWwXgSw8SEQ2DRGlMB/SSkMSx1KNjvRWA9vBOnYwY5KXzkzCPqSpL/YxT7cA0XRQGZnZAphxhR4trJjcmMYzwHGAtwMd5eqYScGWKxqCrSRInF+1HNWQ7UQJme4k04qw0sBGEHo0Gw1oc5a4Plp4EdbAnO62Widy5R1nNr04U9UWIBoNnWto9iZBebNVA2G1/RDpLjatXjpKU4uysH4U0PKgrRmA4iMmVdCMIbJGqbJ6y/e45VhplHJh2YgEkOtYgBfrDNuwYLExCbM+k0wjTd1sWPNgvbwwrTU0OoJQzNmslWE07dYxaXaHyg8fHBpmnWmBL8ZpdVrhNiCZ/jzdPk+3//p0W60jzUtjJ4N966iR5qtb+3ERJPaYkgfrzMSVJLHnmj6IcHFWsQhNJWrOqjkpW7RiYoTduRENMVjigs7KmK6O+TK3WaYrG8i3mYNBPHv5W/fx8Gnr9My6jBylLQxI0/acJZAi88bmuP1tDK83+crku50Enk4OyDdtT6SneXarFYH+PuRNRcwrw5a82bAbvSryiib8OwnDJqgHgQ88Yx9+bH4fgA9vb9t3h4eH89P48v/2LRxfnd/R4/Vf);lineShape=1;fontSize=16;" vertex="1" parent="1">
          <mxGeometry x="17.862466235227203" y="6.930589770889128" width="51.783794652991446" height="26.511691338625155" as="geometry" />
        </mxCell>
        <mxCell id="-zi88P0TZKXWsS0uXHh8-9" value="" style="shape=stencil(lVbLbhsxDPyavRISqRfPafofAeLUi7p24Livvy+3CzmmnB20N3nNETXDIaVJHt72T6+7icPb5Xz6uvs5P1/2k3yamOfjfneeL7aa5HGSh5fTefflfPp+fF5/vz4tkcvq2+nHssOvFRcr1bqgOPxev3ChGv9++bwCDvPxBlACcfAAqgnEK4lPECiE7fjaqPr9I0nejm+VWFx8oQLiNVEofv8ME2ijdKdQ5m1ADFeGHSFKAWi6pFAHyJEyAiSKPkPhLtumSj5DjZQAiaUMnnU1XwCZrM4peUCjiIxhRvKFqJmSbAMyE0dPupECDqlQZC+rEjcAYCqeQ6qw1AYYMkiihjIkKh5g7VMQQPt+V7taTgUq1e7mKwdIoRRiHx8oFWCMPGpk8ag/Lf2gKSVAWJkC3xEGtlAjHO4kBb2gJqmfGFa0CiQ1gHiA2QI5VTM1b+3FeKg9tR/gxtoNVKHF3oy3zYMyfAQQQFpsAHgOJjQqnFiZvFPfhf4QwHaAYRIHfDdEOxOPZ1Igk1mn+MqpUANDqXYv93gbnK0C0uPd0KwbwOAOpMOQjHBe3N0ky5yH8cPlmaW368b5h/1tQClwRRlvBbHuA/vHOBpbIuzm/36P/APAFu/Pn5f5cFhfT7f/j88l+7Q+teTxDw==);lineShape=1;fontSize=16;" vertex="1" parent="1">
          <mxGeometry x="74.09748165119822" y="24.899272375663486" width="6.73125298169839" height="4.993501058792958" as="geometry" />
        </mxCell>
        <mxCell id="-zi88P0TZKXWsS0uXHh8-10" value="" style="shape=stencil(fZbdcgIhDIWfZm8zQAg/17Z9j85U606tdqz9e/tmZ0c0uJ47xP0I5JwEBl59bp8/1kNwn6fj4W39M76ctgM/DCGM++36OJ50NPDjwKvN4bh+PR6+9i/z74/n6ctp9H74nlb4nbmSKZeJCu5vngmZ6jzzNAO7cX8FVKEsBuBKrgKg9oAE8gkCbLeUhEoEQKSUDZDLeWYRKIl8MEDRmHwfyBrBG6Amyu4+kDxxMoB3jhwgYu7TVAsVkFcWCs4CTBEoF4RctKeOxHIf8IXYpikHikAIf+MNUW94AGSSaoAoFIE3AlOyeWU+p2E5S9yfQZcQILVuQOwZdJNoS9Ls3wA5u2XZTIHECqeJ9kDpSaauRiNVcAY1QhdBzeLBli5WazpkSsBLV25uRaqWRyFawTQzRRIQYirJzq5atkBqLfouwqUxLBepthWb10vrWZY6UOAeyKCCtDV625mm9gmUC4Wc3VLJMMIE1BsA2FW9JraVlQB7n3c9oMKhCLEvIM1zBPZ25/umNQ1tVEC2G+fFCC8g398O2hNQuQlVu752DBfA+q0ptnqO5JFmeuIuo9DY7KjY71UxdJV4EntifPWorW++R/dC4t7V3DlIB5cHx2bc7eb3yvX//QNFp+bHDT/+Aw==);lineShape=1;fontSize=16;" vertex="1" parent="1">
          <mxGeometry x="113.86796084247567" y="4.875312458519147" width="4.672539772115442" height="4.665236216357698" as="geometry" />
        </mxCell>
        <mxCell id="-zi88P0TZKXWsS0uXHh8-12" value="" style="shape=stencil(7VxJjhw3EHzNXAvcl7OXfwiwbA0sS4Ysb793pAfsKUZWR9uAjrpJ3ZVTJHOLjEz2U/7mt3dvfn37lMJvnz99/Pntn88/fH73lL99Sun5w7u3n54/419P+bun/M2PHz+9/enTx98//PDy/1/f2JP2r18+/mF/4a8XuXCUaEIp/P3ywYhHqv9+8v3L8++fP5yej8fM/HwY95/PRwjb830ec95/vhyx78+PY8T7z9cjz/35frRw//l2tLQ/344k1tOPTn+/rE8un8dq6/58luczj07nE47RxfmHI5dNoI2jFyEQnUA6RhYC6ai7QE1HEiqI+ci7DZV6BLUHKHlsArmvT64F6jrDJYBzi0ILEJgkEJehXwu0o7dNAItM6pT6UXbFDb3nsRa8ng/LM66fn8sNb1qQdo3n474efKIcJ9786qaEuLZ0T6DsOyjlGEoJ40hkSPAmdabzCGRI7cgqGMF79mhR4tGFAA697eErIyCIU4LZkDPglLLYdEpH2d+AkFOFbSNCUsTDn5BLysfYl4RjyEqgsKbNn4QeYGoU9CBQ1KYRQ3fjszio3zB3685DK66uQ7xpeq5zuycQd4euc6Wuu6e076FN6aEQqLsAzFvFGCyp7Huo+ZhJHmvdk1UN2pY6a7rc4tq1wFyR/SaQjiCWlOFAu7XCgbrK//h7uy3Bgap6A7IJhe4mM24uR9n9AQ6kMmKuHFrhQEWcErYYd5+2dCFsCQKEksy69Bso/WCRWe0BgZEiX9VLqmsBJ2ud+pQINwCZZOEP0ANBq9aW7u+9oe+n1HT0fjW12x6GNG8ElUBJtK5zuxaAIezHWqPUQwms6dIlboB/kXkXGLzwB3xNCBHvDCLMWFamHNclpC83ZHEyvqo2jbhESADWJYIABAjwGRJQb4Ca9j3A+JR526bJWvsKC/cECC+NIV0Uehj7HlCZSMUhA+3+YKWDMD6cEtViHbWVWlLnLNqqLq7m0XxSFIqD9ROaQcpSe8DXtOkyJNaohRHZA3+AB5OmzR/UHoDwKAMNCeFgm63yHlTahQBhjZb1GxpnUZh303uIzry7PiXy6VEklK6F88MsEvPVwth7ap82Te/HOjXAggDBHwiocA8Biq0x6CoLElSi4BVN75rse+qwAQEiQHBMKrgaJtyjwKwSS0OAKIeZNWWCr2kPUVYcXmBMbUxuSePmInc3TW+okhGwYyWBfFS1h7Ic7ERcNXWsDvT1W0C/FwWoPkYB0ZSmXcnedOXXADao4oCLCD3g73WKZE1ih1bWIZ5ipaI1DOJRPRCXS10L9At4rxJEG8vUTvBeVX5Wtu2mYTSBsCUIjMlLUnCmOdLOTkmYNwQozJQmcahBbUdsJBHIgBQKaTpINqeniz0oKADwQknOqBP1hurybpZlFlIaMSGoNpPwOACwSmWW5hH75CWhLlPUyQicRlPU9G+8qC0VYBqJOS+rXtWSokPrbUXbe3uYu+KKrsAhEB2LoHIcjjU6xriIJUFxFFtRyEnFeYRVpMf15ljvKcM9rJWoE3yi2Bx8zcy9DmTdUVi96U3X5S6nJUk9VA6VlrK0iybXrVCMVK9cyCGOPDglzqJBJsXXFd8UN2TlZwK74ppmpEyATKOsvHr3lGhJWTZETGA/pRYlIuuui4VUr6IGLIeqJqAPlaetK0YVeNHGN7iDUrXiEDWIOnmtZ+9GPh+XVKjMCx2diQ3hD8CQ9AZkIFWiDBc1gGaiML7hukBJtyvHWN3GM9ZQCWVy/WA0sgr3k+sH5LikOpCuJ4I9KGYQ1ULajxVpV4ETCHA3rssqayYuRrEkhWas4qE9TEnDobglNgdYI6pNV65QICBPqa0+7hkZC9NAXdjcGxTWQOVJBTU2ndWmJ8cl6OGBAGUgWKsKlXM6W+pacZNbTdC0inzTmXfWDfM52fgMhqq25StncEJYigS2V1CcmdqYJtuGhT7lo5Op8pJlcIVApeBaJB8Kgey6u1UEVzOmxEtS7IyxPbTpJIMr7Ht2PlbFhJiASxAK/1wI6K7/xZI0lrZNu8kFlbPmLW6dY6U2DU5BTQemyTjUqiYdBTo12Iasy7x5W3DVUYAdKEl/uPLRKinXizAwtKonky2oqIfeNXWnYN+KRrBgSR5U5FTL/xcYiyQ+YTLFMFkOckSF3HRjps8ElKorky2lycLMMrV7gwx9mRv5EJAAKDG9aSyZ8tHIWKBUjWcCI1fEyqlBHJ0SQp/Exi645ltsuwdEswuuqr07HL1ZdD8YYJp6RzZbIPRglC8liLLC7b2CgOnNIbHASDzuYO0she8dNq5T02rzgqhQJQcKM4K6Rkeqwqw5oiJLn/5CzIYIAl+ZjZdPvjIbX4DZuHWwbx6nY6v5A7lokB0I8zjKD0U2CW0CmbBG13qYHJeAEofmThiS6aQ4IpMt1hTRrDGH+yxdFEvqDhqr9hc2zadUJRLAsRLWQMpquj9A3AkSisKhvV4gAYWXOtA/jf8gx6klJY6tRqspn3bzpLXLviWCCk9gTNkfQPqgrnnTozPNDQI3PVDRhiPudNsFAtxVLLIH3lxDweoB1WDzb8hrxOJaoK/G6anGV2EGoZdIrwfVq+V9wnxTDra0xLWlDUmpPUTOQNiVnISZLos22Uq1BeybHuVR05xmMQGuVZ5GcKfq1aZIdB//69jJU/o6dvKfljS6tu8vM3YinLr6McMgR/Rq4SjQdSMfHkRj6Ig8D4bPqONch6yPIUBwBllRulxlOqfqoRDv1OaE2vgIh9YpsUN1XXObXBHHimB9cZFLTdEOrvyg6aTHPQn/oGKW05t1YZGTx6mmH3AtTdHOtjRzLZCZ08Ub5CRw5rYiUrcq2bGk5vGPWlLlUckHw5jGGRCFpW+KFNc7grEozguJn69lVD3NHF3lF6R5Zzen26qc8ciD/cGAppqMB1JwA6Vyut9FDZQUypaA/unC26gSfAMTZg821A2FzLP3D65C2hvI+IYcYcrFccBNXiLKlcewHt/jILofpaIa7LU3kECSjR27luHAtypGcazUOspD6yGx8VlBre4EBW6+1iBPKU0+VuQkNaz2ehnzRGyoPVgX3t12URywvyNn825CcakwsdGnPKXk4M8DVg0C1B6o2qeTQzOl63t+xZl3lzkuuYu75rR6STwD2OUlImyaZgDtOoDStCvZX292XAtERmSWUJSmXbhHfoj6VirRDijtkmpR+xq/SfOOg1nmrgdb7O4uCRTpotENbzbdrI2NWxyGBMSx2hsosWuQaFe0/YyHFiDMh0+SWtLgm+/6XiCeJ04g1ocrovGIKNs6sV+0j1U9HV2X5kF6wIqJOQEeUmxodJP3wFcKSUcX+Iy4UEvKa/DyTJSrN6TFxJzIfnmVPboLO5q2i4FtbyQZWh17OjSBNa4qV8UjutK4SdjgbiihlJY3xTgzDF2QFVdpRFnbZ77JaV1b/Tsljp1QyC044ko3mNzPcMwipy6CY3x0lR5Wxjitv4jzD5xocT5qziSwy8wg2Rs3bwH9qpk//3yXwTo4YqVKoBAY4KFYUDRJYK50ZJnEA9vn0HRv4ExgLRqp3//3uzuPn8c/Xn/k58fn9+9ffiPo/D3/KBA+evlBofzdPw==);lineShape=1;fontSize=16;" vertex="1" parent="1">
          <mxGeometry x="398.3110332078404" y="6.410657846858612" width="396.34136331794434" height="24.484969943441683" as="geometry" />
        </mxCell>
        <mxCell id="-zi88P0TZKXWsS0uXHh8-13" value="" style="shape=stencil(1VjLUhtBDPwaX1UzmqfOhPwHVZjgCsGUgTz+Pto4s1lp7XY4pIrcbK/aI6mllnY26er5/uZpu+Hw/HLYf95+292+3G/Shw3z7vF+e9i96KdNut6kq7v9YfvpsH99vD1+f7qZLKdPX/Zfp3/4fsRl6nkCcfhx/CGQhF8/fDyaP+weF+YxUxJjH6nyeXsuxOz+v/Xz9ilTrs4+AH8yU23GvlJIwD5Rsf+fmBIApEbFHpA7iQBApGAzWgsJSlGmYgE9UQQuTSmPBiBzVKcBwSdVKkUAiELRsiaNJAJA8zRIp4YAlTh4QMGF18S7lBBAc+JiKBQBcZFXWWLiBgDKg3Wpa9AZAtgxnWE3KOB3IcyAANtNAakbQKsjDecAYolrjIlj6q7hhDIAaPF1W621UyiggdJ4PABFBjOne1p5sEGXQgG4VDRLlukSKAKma6Rsmc4FBt2UaUtc1jQAHnocKjTrUh06chKgxRwsDyyUQFq15UvwAFQa2l/duaSzAfCgHSwOoD0IhEzEE6dBC4ghhnkaLPOKfJLxeAbkUcDnAGx9Ur0viIhOydZ3mavlXF6Dq75EGRFRqDpAHvp8GpCJiz8BUs0k3cdQgTBJHDNwkaWGgtb6dmO0wBGkADcgtM1Rj8qqR3V0M6o+VXdLnJZrQy4lYndCvMRDXbccSuu8vCybGvdotidoj0IV0GJ2MTDcHbQfsiUuFWq4qcUOuSSXVEBci2q1ohjET/bcxtg7F7TbTlTvK5BvTavTysJw/5n2KUuctijaQydAfgugzw4spiIq77YC6B6KslTTaneIcP+ZRMUBOuwHlV6/zmCXtNSK23QZTnZWB9xaqWoLdImZoj1hMWNOz6BCfbW5Ir1/p+t69zH8h+u6e+XgMbrf1boOevT0uo4B/3hdVx66dUllIyPixKuAimsGsqFv6K4fpldwcML6TuDCVFxfOjDe4da3GtyooWsHf2uiB6CsJj+A1B7qmL900KR1FIBPqXqIFungV3tmyFnwS/HEOvBntaargCDG1vYJivDKH4GNuQpXs4leM3w283hf/EuyKKOh5mshwup/4wXdRXP98Ocu8G738HC8Slw+93eH+tPx3jFd/wQ=);lineShape=1;fontSize=16;" vertex="1" parent="1">
          <mxGeometry x="790.8766322019981" y="12.720328843491416" width="43.87533663649879" height="15.551273963860694" as="geometry" />
        </mxCell>
        <mxCell id="-zi88P0TZKXWsS0uXHh8-15" value="" style="rounded=0;whiteSpace=wrap;html=1;fontSize=16;" vertex="1" parent="1">
          <mxGeometry y="40" width="850" height="60" as="geometry" />
        </mxCell>
        <mxCell id="-zi88P0TZKXWsS0uXHh8-16" value="" style="rounded=0;whiteSpace=wrap;html=1;fontSize=16;" vertex="1" parent="1">
          <mxGeometry x="160" y="40" width="80" height="60" as="geometry" />
        </mxCell>
        <mxCell id="-zi88P0TZKXWsS0uXHh8-17" value="" style="rounded=0;whiteSpace=wrap;html=1;fontSize=16;" vertex="1" parent="1">
          <mxGeometry x="240" y="40" width="80" height="60" as="geometry" />
        </mxCell>
        <mxCell id="-zi88P0TZKXWsS0uXHh8-18" value="" style="rounded=0;whiteSpace=wrap;html=1;fontSize=16;" vertex="1" parent="1">
          <mxGeometry x="730" y="40" width="120" height="60" as="geometry" />
        </mxCell>
        <mxCell id="-zi88P0TZKXWsS0uXHh8-19" value="" style="rounded=0;whiteSpace=wrap;html=1;fontSize=16;" vertex="1" parent="1">
          <mxGeometry y="100" width="850" height="420" as="geometry" />
        </mxCell>
        <mxCell id="-zi88P0TZKXWsS0uXHh8-20" value="" style="whiteSpace=wrap;html=1;aspect=fixed;fontSize=16;" vertex="1" parent="1">
          <mxGeometry x="500" y="170" width="350" height="350" as="geometry" />
        </mxCell>
        <mxCell id="-zi88P0TZKXWsS0uXHh8-21" value="Text" style="text;strokeColor=none;fillColor=none;html=1;align=center;verticalAlign=middle;whiteSpace=wrap;rounded=0;fontSize=16;" vertex="1" parent="1">
          <mxGeometry x="10" y="110" width="790" height="50" as="geometry" />
        </mxCell>
        <mxCell id="-zi88P0TZKXWsS0uXHh8-22" value="Text" style="text;strokeColor=none;fillColor=none;html=1;align=center;verticalAlign=middle;whiteSpace=wrap;rounded=0;fontSize=16;" vertex="1" parent="1">
          <mxGeometry x="50" y="180" width="400" height="270" as="geometry" />
        </mxCell>
        <mxCell id="-zi88P0TZKXWsS0uXHh8-23" value="" style="rounded=0;whiteSpace=wrap;html=1;fontSize=16;" vertex="1" parent="1">
          <mxGeometry y="520" width="550" height="480" as="geometry" />
        </mxCell>
        <mxCell id="-zi88P0TZKXWsS0uXHh8-24" value="" style="rounded=0;whiteSpace=wrap;html=1;fontSize=16;" vertex="1" parent="1">
          <mxGeometry x="550" y="520" width="300" height="480" as="geometry" />
        </mxCell>
        <mxCell id="-zi88P0TZKXWsS0uXHh8-25" value="" style="rounded=0;whiteSpace=wrap;html=1;fontSize=16;" vertex="1" parent="1">
          <mxGeometry y="999" width="850" height="650" as="geometry" />
        </mxCell>
        <mxCell id="-zi88P0TZKXWsS0uXHh8-26" value="" style="rounded=0;whiteSpace=wrap;html=1;fontSize=16;" vertex="1" parent="1">
          <mxGeometry x="17.86" y="1020" width="142.14" height="240" as="geometry" />
        </mxCell>
        <mxCell id="-zi88P0TZKXWsS0uXHh8-27" value="" style="rounded=0;whiteSpace=wrap;html=1;fontSize=16;" vertex="1" parent="1">
          <mxGeometry x="190" y="1020" width="141.46" height="240" as="geometry" />
        </mxCell>
        <mxCell id="-zi88P0TZKXWsS0uXHh8-28" value="" style="rounded=0;whiteSpace=wrap;html=1;fontSize=16;" vertex="1" parent="1">
          <mxGeometry x="360" y="1020" width="140" height="240" as="geometry" />
        </mxCell>
        <mxCell id="-zi88P0TZKXWsS0uXHh8-29" value="" style="rounded=0;whiteSpace=wrap;html=1;fontSize=16;" vertex="1" parent="1">
          <mxGeometry x="18.54" y="1290" width="142.14" height="240" as="geometry" />
        </mxCell>
        <mxCell id="-zi88P0TZKXWsS0uXHh8-30" value="" style="rounded=0;whiteSpace=wrap;html=1;fontSize=16;" vertex="1" parent="1">
          <mxGeometry x="190" y="1290" width="142.14" height="240" as="geometry" />
        </mxCell>
        <mxCell id="-zi88P0TZKXWsS0uXHh8-31" value="" style="rounded=0;whiteSpace=wrap;html=1;fontSize=16;" vertex="1" parent="1">
          <mxGeometry x="360" y="1290" width="142.14" height="240" as="geometry" />
        </mxCell>
        <mxCell id="-zi88P0TZKXWsS0uXHh8-32" value="Text" style="text;strokeColor=none;fillColor=none;html=1;align=center;verticalAlign=middle;whiteSpace=wrap;rounded=0;fontSize=16;" vertex="1" parent="1">
          <mxGeometry x="30" y="1520" width="470" height="100" as="geometry" />
        </mxCell>
      </root>
    </mxGraphModel>
  </diagram>
</mxfile>
